<svg id="icon" xmlns="http://www.w3.org/2000/svg" viewBox="0 0 63 60"><defs><style>.cls-1{opacity:0.9;}.cls-2{fill:#878787;}.cls-3{fill:#e63d4e;}</style></defs><g class="cls-1"><path class="cls-2" d="M3.09,38.45a1,1,0,0,1-.45-1.89l10-5a1,1,0,1,1,.9,1.78l-10,5A.93.93,0,0,1,3.09,38.45Z" transform="translate(-2.09 -1.45)"/><path class="cls-2" d="M10.09,27.45h-6a1,1,0,0,1,0-2h6a1,1,0,0,1,0,2Z" transform="translate(-2.09 -1.45)"/><path class="cls-2" d="M12.09,44.45a1,1,0,0,1-.63-.22,1,1,0,0,1-.15-1.4l4-5a1,1,0,0,1,1.56,1.24l-4,5A1,1,0,0,1,12.09,44.45Z" transform="translate(-2.09 -1.45)"/></g><g class="cls-1"><path class="cls-2" d="M47.09,14.45a1,1,0,0,1-.45-1.89l10-5a1,1,0,1,1,.9,1.78l-10,5A.93.93,0,0,1,47.09,14.45Z" transform="translate(-2.09 -1.45)"/><path class="cls-2" d="M56.09,20.45h-6a1,1,0,0,1,0-2h6a1,1,0,0,1,0,2Z" transform="translate(-2.09 -1.45)"/><path class="cls-2" d="M44.09,8.45a1,1,0,0,1-.63-.22,1,1,0,0,1-.15-1.4l4-5a1,1,0,0,1,1.56,1.24l-4,5A1,1,0,0,1,44.09,8.45Z" transform="translate(-2.09 -1.45)"/></g><path class="cls-3" d="M39.09,59.45c-4.33,0-8.1-3-10.9-8.55l-8-16a8.15,8.15,0,0,1-1.1-3.45,4.26,4.26,0,0,1,3-3.89,2,2,0,0,1,.41-.07l-1.3-2.59a4.62,4.62,0,0,1,1.19-5.16,3.35,3.35,0,0,1,2-.95,4.61,4.61,0,0,1,.38-3.62,3.79,3.79,0,0,1,3.32-1.72,4.13,4.13,0,0,1,3.84,2.45,4.3,4.3,0,0,1,3.16-1.45A4.1,4.1,0,0,1,39,17l9,18,.14.22c.14-.34.3-.89.44-1.35s.3-1.06.51-1.69c1.18-3.53,3.48-5.73,6-5.73s4,1.51,4,3a1,1,0,0,1-.11.45,32.38,32.38,0,0,0-2.89,13.55C56.09,58.3,43.08,59.45,39.09,59.45Zm-16.38-30-.17,0a2.33,2.33,0,0,0-1.45,1.95A6.62,6.62,0,0,0,22,34l8,16c2.47,4.94,5.54,7.45,9.11,7.45,13,0,15-8.77,15-14a34.67,34.67,0,0,1,3-14.17c-.15-.43-.83-.83-2-.83-1.6,0-3.25,1.75-4.12,4.36-.2.6-.36,1.14-.49,1.61-.47,1.63-.88,3-2.39,3-.85,0-1.49-.82-1.87-1.51l-9-18a2.1,2.1,0,0,0-2.1-1.45,2.32,2.32,0,0,0-1.73.84A1.37,1.37,0,0,0,33,18l7,14a1.06,1.06,0,0,1,.11.45,1,1,0,0,1-.55.89,1,1,0,0,1-1.35-.44l-8-16a2.15,2.15,0,0,0-2.1-1.45,1.83,1.83,0,0,0-1.61.77c-.49.8-.31,2.17.5,3.77h0l7,14a1.06,1.06,0,0,1,.11.45,1,1,0,0,1-.55.89,1,1,0,0,1-1.35-.44l-7-14s-.09-.09-.27-.12a1.33,1.33,0,0,0-1.12.38A2.65,2.65,0,0,0,23,24l7,14a1.06,1.06,0,0,1,.11.45,1,1,0,0,1-.55.89,1,1,0,0,1-1.35-.44l-4-8C23.92,30.35,23.38,29.48,22.71,29.48Z" transform="translate(-2.09 -1.45)"/><path class="cls-3" d="M39.15,19.58a3.39,3.39,0,0,1,.21-.29,2.32,2.32,0,0,1,1.73-.84,2.1,2.1,0,0,1,2.1,1.45l6.63,13.24c.06-.21.12-.42.2-.64a10.62,10.62,0,0,1,.8-1.83L45,19a4.1,4.1,0,0,0-3.89-2.55,4.24,4.24,0,0,0-2.91,1.19Z" transform="translate(-2.09 -1.45)"/><path class="cls-3" d="M61.09,28.45A4.91,4.91,0,0,0,58,29.64a31.27,31.27,0,0,0-2.59,9.25,6.43,6.43,0,0,0,1.07-2.47c.13-.47.29-1,.49-1.61.87-2.61,2.52-4.36,4.12-4.36,1.14,0,1.82.4,2,.83a34.67,34.67,0,0,0-3,14.17c0,5.23-2,14-15,14a7.37,7.37,0,0,1-3.87-1.1c-.83.08-1.56.1-2.13.1a8.76,8.76,0,0,1-1-.07,10,10,0,0,0,7,3.07c4,0,17-1.15,17-16A32.38,32.38,0,0,1,65,31.9a1,1,0,0,0,.11-.45C65.09,30,63.71,28.45,61.09,28.45Z" transform="translate(-2.09 -1.45)"/></svg>