<svg id="icon" xmlns="http://www.w3.org/2000/svg" viewBox="0 0 63 60"><defs><style>.cls-1{opacity:0.9;}.cls-2{fill:#878787;}.cls-3{fill:#482069;}.cls-4{fill:none;}</style></defs><g class="cls-1"><path class="cls-2" d="M63.68,37.7a1,1,0,0,0,.45-1.89l-10-5a1,1,0,0,0-1.34.45,1,1,0,0,0,.44,1.34l10,5A1,1,0,0,0,63.68,37.7Z" transform="translate(-1.68 -0.7)"/><path class="cls-2" d="M56.68,26.7h6a1,1,0,0,0,0-2h-6a1,1,0,0,0,0,2Z" transform="translate(-1.68 -0.7)"/><path class="cls-2" d="M54.68,43.7a1,1,0,0,0,.63-.22,1,1,0,0,0,.15-1.4l-4-5a1,1,0,1,0-1.56,1.25l4,5A1,1,0,0,0,54.68,43.7Z" transform="translate(-1.68 -0.7)"/></g><g class="cls-1"><path class="cls-2" d="M19.68,13.7a1,1,0,0,0,.45-1.89l-10-5a1,1,0,0,0-1.34.45A1,1,0,0,0,9.23,8.6l10,5A1,1,0,0,0,19.68,13.7Z" transform="translate(-1.68 -0.7)"/><path class="cls-2" d="M10.68,19.7h6a1,1,0,0,0,0-2h-6a1,1,0,0,0,0,2Z" transform="translate(-1.68 -0.7)"/><path class="cls-2" d="M22.68,7.7a1,1,0,0,0,.63-.22,1,1,0,0,0,.15-1.4l-4-5A1,1,0,1,0,17.9,2.33l4,5A1,1,0,0,0,22.68,7.7Z" transform="translate(-1.68 -0.7)"/></g><path class="cls-3" d="M10.68,42.7A32.38,32.38,0,0,0,7.79,29.15a1,1,0,0,1-.11-.45c0-1.49,1.37-3,4-3s4.84,2.2,6,5.73c.21.63.37,1.19.51,1.69s.3,1,.44,1.35l.14-.21,9-18a4.09,4.09,0,0,1,3.89-2.56,4.3,4.3,0,0,1,3.16,1.45,4.11,4.11,0,0,1,3.84-2.45A3.78,3.78,0,0,1,42,14.43,4.58,4.58,0,0,1,42.38,18a3.37,3.37,0,0,1,2,1,4.6,4.6,0,0,1,1.19,5.15l-1.3,2.59a3.14,3.14,0,0,1,.41.07,4.27,4.27,0,0,1,3,3.89,8.11,8.11,0,0,1-1.1,3.45l-8,16c-2.8,5.6-6.57,8.55-10.9,8.55C23.69,58.7,10.68,57.55,10.68,42.7Zm31.9-12.55-4,8a1,1,0,0,1-1.9-.45,1,1,0,0,1,.11-.44l7-14A2.67,2.67,0,0,0,43,20.41,1.37,1.37,0,0,0,41.85,20c-.18,0-.26.09-.27.12l-7,14a1,1,0,0,1-1.35.45,1,1,0,0,1-.55-.9,1,1,0,0,1,.11-.44l7-14h0c.81-1.61,1-3,.5-3.78a1.83,1.83,0,0,0-1.61-.77,2.15,2.15,0,0,0-2.1,1.45l-8,16a1,1,0,0,1-1.35.45,1,1,0,0,1-.55-.9,1,1,0,0,1,.11-.44l7-14a1.37,1.37,0,0,0-.37-.74,2.36,2.36,0,0,0-1.73-.84,2.11,2.11,0,0,0-2.1,1.45l-9,18c-.38.69-1,1.51-1.87,1.51-1.51,0-1.92-1.4-2.39-3-.14-.47-.29-1-.49-1.61-.87-2.6-2.52-4.36-4.12-4.36-1.14,0-1.83.4-2,.83a34.67,34.67,0,0,1,3,14.17c0,5.23,2,14,15,14,3.57,0,6.64-2.5,9.11-7.44l8-16a6.6,6.6,0,0,0,.89-2.56,2.3,2.3,0,0,0-1.45-1.94.57.57,0,0,0-.18,0C43.39,28.73,42.85,29.6,42.58,30.15Z" transform="translate(-1.68 -0.7)"/><path class="cls-3" d="M27.61,18.84a1.94,1.94,0,0,0-.2-.3,2.36,2.36,0,0,0-1.73-.84,2.11,2.11,0,0,0-2.1,1.45L17,32.39c-.06-.21-.13-.42-.2-.64a10.85,10.85,0,0,0-.8-1.82l5.84-11.67a4.09,4.09,0,0,1,3.89-2.56,4.26,4.26,0,0,1,2.91,1.19Z" transform="translate(-1.68 -0.7)"/><path class="cls-3" d="M5.68,27.7a5,5,0,0,1,3.09,1.19,31.27,31.27,0,0,1,2.59,9.25,6.36,6.36,0,0,1-1.07-2.47c-.14-.47-.29-1-.49-1.61-.87-2.6-2.52-4.36-4.12-4.36-1.14,0-1.83.4-2,.83a34.67,34.67,0,0,1,3,14.17c0,5.23,2,14,15,14a7.45,7.45,0,0,0,3.87-1.09c.83.07,1.56.09,2.13.09a8.76,8.76,0,0,0,1-.07,10,10,0,0,1-7,3.07c-4,0-17-1.15-17-16A32.38,32.38,0,0,0,1.79,31.15a1,1,0,0,1-.11-.45C1.68,29.21,3.05,27.7,5.68,27.7Z" transform="translate(-1.68 -0.7)"/><path class="cls-4" d="M44.05,28.73a.57.57,0,0,1,.18,0,2.3,2.3,0,0,1,1.45,1.94,6.6,6.6,0,0,1-.89,2.56l-8,16c-2.47,4.94-5.54,7.44-9.11,7.44-13,0-15-8.77-15-14a34.67,34.67,0,0,0-3-14.17c.14-.43.83-.83,2-.83,1.6,0,3.25,1.76,4.12,4.36.2.6.35,1.14.49,1.61.47,1.63.88,3,2.39,3,.85,0,1.49-.82,1.87-1.51l9-18a2.11,2.11,0,0,1,2.1-1.45,2.36,2.36,0,0,1,1.73.84,1.37,1.37,0,0,1,.37.74l-7,14a1,1,0,0,0-.11.44,1,1,0,0,0,.55.9,1,1,0,0,0,1.35-.45l8-16a2.15,2.15,0,0,1,2.1-1.45,1.83,1.83,0,0,1,1.61.77c.49.8.31,2.17-.5,3.78h0l-7,14a1,1,0,0,0-.11.44,1,1,0,0,0,.55.9,1,1,0,0,0,1.35-.45l7-14s.09-.09.27-.12a1.37,1.37,0,0,1,1.12.38,2.67,2.67,0,0,1,.82,2.85l-7,14a1,1,0,0,0-.11.44,1,1,0,0,0,1.9.45l4-8C42.85,29.6,43.39,28.73,44.05,28.73Z" transform="translate(-1.68 -0.7)"/></svg>