<svg id="Layer_1" data-name="Layer 1" xmlns="http://www.w3.org/2000/svg" xmlns:xlink="http://www.w3.org/1999/xlink" viewBox="0 0 305.86 73.7"><defs><style>.cls-1{fill:none;}.cls-2{fill:#45216f;}.cls-3{fill:#ef4957;}.cls-4{clip-path:url(#clip-path);}</style><clipPath id="clip-path" transform="translate(0 0)"><rect class="cls-1" width="305.86" height="73.7"/></clipPath></defs><polygon class="cls-2" points="122.77 29.88 112.79 62.53 112.67 62.53 102.69 29.88 89.23 29.88 89.23 72.96 97.29 72.96 97.29 37.53 97.41 37.41 108.7 72.96 116.76 72.96 128.06 37.41 128.18 37.41 128.18 72.96 136.23 72.96 136.23 29.88 122.77 29.88"/><path class="cls-2" d="M145.13,42.84a27.13,27.13,0,0,1,10.76-2.41c9.43,0,13.34,4,13.34,13.4V57.9c0,3.21.06,5.62.12,8s.18,4.63.36,7.1h-7.09a40,40,0,0,1-.36-4.75h-.12a11,11,0,0,1-9.56,5.49c-5.47,0-10.81-3.39-10.81-9.44,0-4.76,2.22-7.53,5.29-9.08s7-1.85,10.39-1.85h4.45c0-5.12-2.22-6.85-7-6.85a15.94,15.94,0,0,0-9.56,3.46Zm9.44,24.81a6.79,6.79,0,0,0,5.65-2.84,10.76,10.76,0,0,0,1.68-6.54h-3.49c-3.6,0-8.95.62-8.95,5.49,0,2.72,2.22,3.89,5.11,3.89" transform="translate(0 0)"/><path class="cls-2" d="M200.49,71.17a20.79,20.79,0,0,1-10.64,2.53c-10.22,0-16.17-6-16.17-16.48,0-9.19,4.75-16.79,14.37-16.79,11.48,0,14.72,8.09,14.72,19.2H181.38c.36,5.12,3.84,8,8.83,8a20.49,20.49,0,0,0,10.28-3.21ZM195.08,54c-.24-4-2-7.47-6.55-7.47s-6.79,3.21-7.15,7.47Z" transform="translate(0 0)"/><path class="cls-2" d="M226,47.84a19.33,19.33,0,0,0-7.21-1.36c-2.16,0-4.75.8-4.75,3.52,0,5.06,14,1.85,14,13.33,0,7.41-6.43,10.37-13,10.37a35.26,35.26,0,0,1-9.13-1.36l.48-6.79a17.3,17.3,0,0,0,7.93,2.1c2.05,0,5.29-.8,5.29-3.89,0-6.23-14-2-14-13.45,0-6.85,5.83-9.88,12.14-9.88a36,36,0,0,1,8.78,1.18Z" transform="translate(0 0)"/><path class="cls-3" d="M235.41,47.22h-5.95v-6h5.95V34.82l8.06-2.66v9h7.15v6h-7.15V62c0,2.71.72,5.24,3.78,5.24a7.11,7.11,0,0,0,3.67-.86l.24,6.54a20.81,20.81,0,0,1-5.95.74c-6.31,0-9.8-4-9.8-10.31Z" transform="translate(0 0)"/><path class="cls-2" d="M254.83,41.17H262v7.22h.12c.36-3,3.66-8,8.47-8a8.54,8.54,0,0,1,2.47.25V49a8.07,8.07,0,0,0-3.61-.68c-6.55,0-6.55,8.4-6.55,13V73h-8Z" transform="translate(0 0)"/><path class="cls-2" d="M289.64,40.43c9.19,0,16.22,6.36,16.22,16.85,0,9.14-5.95,16.42-16.22,16.42s-16.17-7.28-16.17-16.42c0-10.49,7-16.85,16.17-16.85m0,26.85c6.19,0,7.81-5.68,7.81-11,0-4.87-2.53-9.44-7.81-9.44s-7.76,4.69-7.76,9.44c0,5.25,1.63,11,7.76,11" transform="translate(0 0)"/><path class="cls-2" d="M112.14,6.18c0,.07,0,.07-.11,0h.11" transform="translate(0 0)"/><path class="cls-3" d="M19.27,36.11l.06-.1c0,.05.05.09,0,.13s0,0-.06,0" transform="translate(0 0)"/><path class="cls-3" d="M41.33,64.12c.42-.25.42-.5.09-.79a17.2,17.2,0,0,1-1.88-1.94,27.27,27.27,0,0,1-.43-35.72c.5-.61.49-.65-.24-1a25.79,25.79,0,0,0-15.3-2.11A23.54,23.54,0,0,0,8.9,30.67,21.59,21.59,0,0,0,3.49,44.56c0,1.2,0,2,.14,2.83a22.17,22.17,0,0,0,8.13,14.88,27.63,27.63,0,0,0,5,3.22,22.64,22.64,0,0,0,4.71,1.71,30,30,0,0,0,5.73.81,23.92,23.92,0,0,0,4.62-.35,25.36,25.36,0,0,0,9.54-3.54" transform="translate(0 0)"/><path class="cls-3" d="M8.71,25.09a27.79,27.79,0,0,1,8.42-5,29.76,29.76,0,0,1,11.74-1.91,36.47,36.47,0,0,1,5.82.74,27.53,27.53,0,0,1,7.42,2.87.79.79,0,0,0,1,0,29.81,29.81,0,0,1,6.69-4.2c.91-.42.91-.42.34-1.19a34.41,34.41,0,0,0-7.7-7.53A38.16,38.16,0,0,0,27.9,2.54a5.07,5.07,0,0,0-3-.14c-.85.33-1.72.64-2.55,1a36.65,36.65,0,0,0-9.46,5.88A37.1,37.1,0,0,0,6.34,16.4a36.6,36.6,0,0,0-4.7,9.45A32.86,32.86,0,0,0,0,36.79v1.15H.23A32.25,32.25,0,0,1,2,33.57a27.78,27.78,0,0,1,6.73-8.48" transform="translate(0 0)"/><path class="cls-3" d="M61.2,65.63a21.4,21.4,0,0,1-8.68-.84c-1.22-.4-1.29-.39-2.17.5-.4.4-.44.62.11,1a31.81,31.81,0,0,0,6.5,3,1.91,1.91,0,0,0,1.58.15,40.86,40.86,0,0,0,6.36-3.49,5.84,5.84,0,0,0,1.69-1.38,2.53,2.53,0,0,0-.6,0,18.2,18.2,0,0,1-4.79,1" transform="translate(0 0)"/><path class="cls-3" d="M51.74,18.71a.68.68,0,0,0-1-.31c-.9.46-1.85.87-2.71,1.38a20.66,20.66,0,0,0-3.76,2.57c-.35.33-.32.54.07.79a16,16,0,0,1,2.66,2,1.16,1.16,0,0,0,.79.35l.22-.06a27.5,27.5,0,0,1,6.11-1.17c.45,0,.34-.27.24-.52a32.78,32.78,0,0,0-2.62-5.06" transform="translate(0 0)"/><path class="cls-3" d="M49.45,66.9c-.46-.3-.82-.43-1.28,0a6.83,6.83,0,0,1-1.08.68,30.22,30.22,0,0,1-8.75,3.68c-1.24.3-2.5.51-3.78.74a39.14,39.14,0,0,0,21.7-1.69,1.43,1.43,0,0,0-.29-.2,30.24,30.24,0,0,1-6.52-3.23" transform="translate(0 0)"/><path class="cls-3" d="M38,4.87a38.2,38.2,0,0,1,8.41,5.7,34.72,34.72,0,0,1,4.88,5.34c.59.82.67.85,1.8.45a30.89,30.89,0,0,1,9.69-1.64c.69,0,1.38.07,2.06.1a24.05,24.05,0,0,1,4.06.47c.39.08.79.33,1.34,0A38.75,38.75,0,0,0,48.24,1.17a38.82,38.82,0,0,0-19.62.22,1.53,1.53,0,0,0,.59.31A36.53,36.53,0,0,1,38,4.87" transform="translate(0 0)"/><path class="cls-3" d="M45.65,60.63A16.25,16.25,0,0,0,47.15,59a21.82,21.82,0,0,0,4.42-19.15,22.8,22.8,0,0,0-5.8-10.28c-.55-.58-.83-.63-1.53-.16a19.58,19.58,0,0,0-3.6,3,18.45,18.45,0,0,0-5.12,12.94,17.18,17.18,0,0,0,.57,3.94,18.89,18.89,0,0,0,8.52,11.42.72.72,0,0,0,1-.1" transform="translate(0 0)"/><path class="cls-3" d="M39.85,59.62l-.14.14c.74.83,1.48,1.67,2.22,2.49a4.36,4.36,0,0,0,.68.61c.29.2.53.06.73-.19s.23-.31,0-.46a33.63,33.63,0,0,1-3.47-2.59" transform="translate(0 0)"/><path class="cls-3" d="M56.35,41.67a17.51,17.51,0,0,0,.6-4.29,26,26,0,0,0-.21-4.57,36,36,0,0,0-1.24-6.06.55.55,0,0,0-.56-.44,17,17,0,0,0-5.31.75c-.29.09-.36.16-.15.42.69.83,1.4,1.65,2,2.52A25.26,25.26,0,0,1,56,40c.1.51.23,1,.39,1.7" transform="translate(0 0)"/><path class="cls-3" d="M42,26.51c-1.52-1-1.26-1-2.29.37a27.38,27.38,0,0,0-4.49,8.31,14.37,14.37,0,0,0-.73,2.94c.31-.11.3-.35.37-.54A21,21,0,0,1,42.1,28.5c1.42-1,1.42-1-.1-2" transform="translate(0 0)"/><path class="cls-3" d="M71.64,17.42a1.25,1.25,0,0,0-.82-.56A30.4,30.4,0,0,0,61,16a32.16,32.16,0,0,0-7.67,1.5c-.73.23-.76.33-.39.94a30.92,30.92,0,0,1,2.68,5.29.78.78,0,0,0,.84.6A22.87,22.87,0,0,1,71.71,31.1a21.72,21.72,0,0,1,3.36,4.53A26.54,26.54,0,0,1,77,40.45a14.89,14.89,0,0,0,.34-3.25,28.75,28.75,0,0,0-.55-7,34.43,34.43,0,0,0-5.16-12.79" transform="translate(0 0)"/><path class="cls-3" d="M67.34,30a21,21,0,0,0-9.92-3.63c-.69-.09-.82.07-.62.75a34.85,34.85,0,0,1,1.4,9.06A32.39,32.39,0,0,1,58,39.69a31.82,31.82,0,0,1-.67,4.23c-.4,1.83-.95,3.63-1.21,5.5a24.17,24.17,0,0,1-3.94,9.87,24.9,24.9,0,0,1-2.35,3c-.18.2-.53.54.06.68a22,22,0,0,0,7.15.66,20.22,20.22,0,0,0,8.3-2.43A16.94,16.94,0,0,0,70,57.69a28.41,28.41,0,0,0,2.9-4.27,15,15,0,0,0,2.51-8.33,14.47,14.47,0,0,0-.4-3.86A18.38,18.38,0,0,0,67.34,30" transform="translate(0 0)"/><path class="cls-3" d="M3.49,44.56A21.59,21.59,0,0,1,8.9,30.67a23.54,23.54,0,0,1,14.67-8.1,25.79,25.79,0,0,1,15.3,2.11c.73.35.74.38.24,1a27.27,27.27,0,0,0,.43,35.72,17.2,17.2,0,0,0,1.88,1.94c.33.29.33.54-.09.79a25.36,25.36,0,0,1-9.54,3.54,23.92,23.92,0,0,1-4.62.35,30,30,0,0,1-5.73-.81,22.64,22.64,0,0,1-4.71-1.71,27.63,27.63,0,0,1-5-3.22A22.17,22.17,0,0,1,3.63,47.39c-.09-.82-.09-1.63-.14-2.83" transform="translate(0 0)"/><path class="cls-3" d="M0,37.94c0-.39,0-.77,0-1.16A32.84,32.84,0,0,1,1.64,25.85a36.6,36.6,0,0,1,4.7-9.45,37.1,37.1,0,0,1,6.54-7.12A36.65,36.65,0,0,1,22.34,3.4c.83-.36,1.7-.67,2.55-1a5.07,5.07,0,0,1,3,.14A38.16,38.16,0,0,1,42.46,8.86a34.19,34.19,0,0,1,7.7,7.53c.57.76.57.77-.35,1.19a30,30,0,0,0-6.68,4.2.79.79,0,0,1-1,0A27.53,27.53,0,0,0,34.69,19a36.62,36.62,0,0,0-5.82-.74,29.58,29.58,0,0,0-11.74,1.91A28.34,28.34,0,0,0,2,33.57,32.25,32.25,0,0,0,.23,38H0" transform="translate(0 0)"/><path class="cls-3" d="M75.36,45.09a15,15,0,0,1-2.51,8.33A28.41,28.41,0,0,1,70,57.69a16.8,16.8,0,0,1-4.65,3.52A20.22,20.22,0,0,1,57,63.64,22,22,0,0,1,49.85,63c-.59-.14-.24-.48-.06-.68a25.94,25.94,0,0,0,2.35-3,24.17,24.17,0,0,0,3.94-9.87c.26-1.87.81-3.67,1.21-5.5A30.27,30.27,0,0,0,58,39.69a32.39,32.39,0,0,0,.24-3.55,34.85,34.85,0,0,0-1.4-9.06c-.2-.68-.07-.84.62-.75A21,21,0,0,1,67.34,30,18.38,18.38,0,0,1,75,41.23a14.47,14.47,0,0,1,.4,3.86" transform="translate(0 0)"/><path class="cls-3" d="M35.52,45.37a18.51,18.51,0,0,1,5.12-12.94,19.58,19.58,0,0,1,3.6-3c.7-.46,1-.42,1.53.16a22.8,22.8,0,0,1,5.8,10.28A21.84,21.84,0,0,1,47.15,59a16.15,16.15,0,0,1-1.5,1.6.72.72,0,0,1-1,.1,18.89,18.89,0,0,1-8.52-11.42,17.18,17.18,0,0,1-.57-3.94" transform="translate(0 0)"/><path class="cls-3" d="M70.19,15.31c-.55.31-1,.06-1.34,0a24.05,24.05,0,0,0-4.06-.47c-.69,0-1.37-.12-2.06-.1A30.89,30.89,0,0,0,53,16.36c-1.13.4-1.21.37-1.81-.45a34.16,34.16,0,0,0-4.87-5.34A37.86,37.86,0,0,0,38,4.87,36.53,36.53,0,0,0,29.21,1.7a1.53,1.53,0,0,1-.59-.31,38.82,38.82,0,0,1,19.62-.22A38.75,38.75,0,0,1,70.19,15.31" transform="translate(0 0)"/><path class="cls-3" d="M77,40.45a26.54,26.54,0,0,0-1.94-4.82,21.72,21.72,0,0,0-3.36-4.53,22.87,22.87,0,0,0-15.26-6.81.77.77,0,0,1-.84-.6,30.92,30.92,0,0,0-2.68-5.29c-.37-.61-.34-.71.39-.95A32.65,32.65,0,0,1,61,16a30.4,30.4,0,0,1,9.83.9,1.29,1.29,0,0,1,.83.56A34.58,34.58,0,0,1,76.8,30.21a28.75,28.75,0,0,1,.55,7A14.89,14.89,0,0,1,77,40.45" transform="translate(0 0)"/><path class="cls-3" d="M34.56,72c1.28-.23,2.54-.44,3.78-.74a30.22,30.22,0,0,0,8.75-3.68,6.83,6.83,0,0,0,1.08-.68c.46-.45.82-.32,1.28,0A30.24,30.24,0,0,0,56,70.13a1.43,1.43,0,0,1,.29.2A39.14,39.14,0,0,1,34.56,72" transform="translate(0 0)"/><path class="cls-3" d="M56.35,41.67c-.16-.68-.29-1.19-.39-1.7a25.26,25.26,0,0,0-4.45-10c-.63-.87-1.34-1.69-2-2.52-.21-.26-.14-.33.15-.42a17,17,0,0,1,5.31-.75.55.55,0,0,1,.56.44,36,36,0,0,1,1.24,6.06A26,26,0,0,1,57,37.38a17.51,17.51,0,0,1-.6,4.29" transform="translate(0 0)"/><path class="cls-3" d="M47.79,25.52a1.21,1.21,0,0,1-.79-.35,16,16,0,0,0-2.66-2c-.39-.25-.42-.46-.07-.79A20.66,20.66,0,0,1,48,19.78c.86-.51,1.81-.92,2.71-1.38a.68.68,0,0,1,1,.31,32.78,32.78,0,0,1,2.62,5.06c.1.25.21.49-.24.52A27,27,0,0,0,48,25.47l-.22.05" transform="translate(0 0)"/><path class="cls-3" d="M66.59,64.56a5.84,5.84,0,0,1-1.69,1.38,40.86,40.86,0,0,1-6.36,3.49A1.92,1.92,0,0,1,57,69.28a31.81,31.81,0,0,1-6.5-3c-.55-.33-.51-.56-.11-1,.88-.89.95-.9,2.17-.5a21.4,21.4,0,0,0,8.68.84,18.2,18.2,0,0,0,4.79-1,2.48,2.48,0,0,1,.6,0" transform="translate(0 0)"/><path class="cls-3" d="M34.49,38.13a14.21,14.21,0,0,1,.73-2.94,27.38,27.38,0,0,1,4.49-8.31c1-1.34.77-1.38,2.29-.37s1.52,1,.1,2a21,21,0,0,0-7.24,9.1c-.07.17-.06.42-.37.53" transform="translate(0 0)"/><path class="cls-3" d="M39.85,59.62a33.63,33.63,0,0,0,3.47,2.59c.25.15.16.29,0,.46s-.44.39-.73.19a4.36,4.36,0,0,1-.68-.61c-.74-.82-1.48-1.66-2.22-2.49l.14-.14" transform="translate(0 0)"/><path class="cls-3" d="M11.89,43.57s0-.08,0-.13.1,0,.1.07-.06.05-.11.06" transform="translate(0 0)"/><path class="cls-3" d="M24.26,45.79l.06-.09s.05.09,0,.12,0,0-.06,0" transform="translate(0 0)"/><path class="cls-3" d="M19.44,45.21a.06.06,0,0,1-.06,0s.05,0,.06,0" transform="translate(0 0)"/><polygon class="cls-2" points="89.31 0.22 89.31 19.78 93.13 19.78 93.13 11.21 99.57 11.21 99.57 8.12 93.13 8.12 93.13 3.3 99.89 3.3 99.89 0.22 89.31 0.22"/><path class="cls-2" d="M114.17,19.79H110.7v-2h0a5.78,5.78,0,0,1-4.61,2.3c-3.33,0-4.78-2.41-4.78-5.66V5.35h3.66v7.71c0,1.76,0,4.15,2.37,4.15,2.65,0,3.22-3,3.22-4.8V5.35h3.66Z" transform="translate(0 0)"/><path class="cls-2" d="M116.65,5.35h3.25V8.63H120C120.12,7.28,121.62,5,123.8,5a3.94,3.94,0,0,1,1.12.11V8.91a3.55,3.55,0,0,0-1.63-.31c-3,0-3,3.81-3,5.89v5.3h-3.66Z" transform="translate(0 0)"/><rect class="cls-2" x="126.82" width="3.66" height="19.79"/><g class="cls-4"><path class="cls-2" d="M148.28,5.35h3.46v2h.06A5.2,5.2,0,0,1,156.41,5c3.33,0,4.77,2.41,4.77,5.66v9.12h-3.65V12.08c0-1.77,0-4.15-2.38-4.15-2.64,0-3.22,2.94-3.22,4.79v7.07h-3.65Z" transform="translate(0 0)"/><path class="cls-2" d="M176.5,5.35v13c0,3.93-1.53,7.63-7.43,7.63a12.06,12.06,0,0,1-4.86-1l.3-3.2a10.3,10.3,0,0,0,4.1,1.26c4,0,4.23-3.11,4.23-5.6h-.06a5,5,0,0,1-4.36,2.3c-4.15,0-5.74-3.42-5.74-7.29C162.68,9,164.43,5,168.63,5A4.65,4.65,0,0,1,173,7.31H173v-2Zm-3.66,7.06c0-2.46-.93-4.48-3.06-4.48-2.48,0-3.27,2.35-3.27,4.57,0,2,1,4.37,3.11,4.37,2.29,0,3.22-2.05,3.22-4.46" transform="translate(0 0)"/><path class="cls-3" d="M139.3,5.31a7.14,7.14,0,0,0-7.18,7.22,7.12,7.12,0,0,0,7.59,7.26,7.25,7.25,0,0,0-.41-14.48m0,11.2a4,4,0,1,1,4-4,4,4,0,0,1-4,4" transform="translate(0 0)"/></g></svg>