<svg id="Layer_1" data-name="Layer 1" xmlns="http://www.w3.org/2000/svg" viewBox="0 0 502.41 603.42"><defs><style>.cls-1{fill:#482069;}</style></defs><path class="cls-1" d="M488.13,22.31l-304.71,96.9c-19.07,6.8-34.68,28.94-34.68,49.19V489.62a95.29,95.29,0,0,0-43.65-10.42c-46.77,0-84.69,32.35-84.69,72.26s37.92,72.25,84.69,72.25,84.69-32.35,84.69-72.25V269.18l292-92.37V392.46A95.29,95.29,0,0,0,438.12,382c-46.77,0-84.69,32.35-84.69,72.26s37.92,72.25,84.69,72.25,84.69-32.35,84.69-72.25V46.76C522.81,26.51,507.2,15.5,488.13,22.31Z" transform="translate(-20.4 -20.29)"/></svg>